<?xml version="1.0" encoding="UTF-8"?>
<svg xmlns="http://www.w3.org/2000/svg" viewBox="0 0 200 50">
  <g fill="#00B14F">
    <path d="M40 25c0 8.284-6.716 15-15 15-8.284 0-15-6.716-15-15 0-8.284 6.716-15 15-15 8.284 0 15 6.716 15 15"/>
    <path d="M25 5C14.507 5 6 13.507 6 24s8.507 19 19 19 19-8.507 19-19S35.493 5 25 5zm0 35c-8.837 0-16-7.163-16-16S16.163 8 25 8s16 7.163 16 16-7.163 16-16 16z"/>
    <path d="M60 15h6v20h-6zM70 15h6l8 12 8-12h6v20h-6V21l-8 12-8-12v14h-6zM102 15h16c5 0 8 3 8 7 0 3-2 5-4 6 3 1 5 3 5 6 0 4-3 7-8 7h-17V15zm15 8c2 0 3-1 3-3s-1-3-3-3h-9v6h9zm1 10c2 0 3-1 3-3s-1-3-3-3h-10v6h10zM130 15h6v20h-6zM140 25c0-6 5-11 11-11s11 5 11 11-5 11-11 11-11-5-11-11zm16 0c0-3-2-5-5-5s-5 2-5 5 2 5 5 5 5-2 5-5zM165 15h6l8 12 8-12h6v20h-6V21l-8 12-8-12v14h-6z"/>
  </g>
</svg> 